<svg  style="position: absolute; width: 0; height: 0; overflow: hidden;" version="1.1" xmlns="http://www.w3.org/2000/svg" xmlns:xlink="http://www.w3.org/1999/xlink">
<defs>
<symbol  id="icon-twitter" viewBox="0 0 32 32">
<path fill="currentColor" d="M32 6.078c-1.1 0.493-2.376 0.857-3.713 1.028l-0.068 0.007c1.36-0.817 2.382-2.078 2.873-3.579l0.013-0.046c-1.197 0.722-2.591 1.273-4.076 1.573l-0.084 0.014c-1.2-1.279-2.9-2.076-4.787-2.076-3.622 0-6.558 2.936-6.558 6.558 0 0.001 0 0.003 0 0.004v-0c0 0.52 0.043 1.021 0.152 1.496-5.454-0.266-10.28-2.88-13.522-6.861-0.564 0.949-0.899 2.092-0.902 3.313v0.001c0 2.272 1.171 4.286 2.914 5.451-1.091-0.030-2.107-0.325-2.994-0.823l0.033 0.017v0.072c0.003 3.165 2.236 5.807 5.213 6.44l0.043 0.008c-0.499 0.136-1.071 0.215-1.662 0.215-0.020 0-0.041-0-0.061-0l0.003 0c-0.419 0-0.843-0.024-1.242-0.112 0.85 2.598 3.261 4.509 6.13 4.57-2.215 1.746-5.045 2.8-8.122 2.8-0.004 0-0.008 0-0.013 0h0.001c-0.018 0-0.040 0-0.062 0-0.531 0-1.055-0.034-1.569-0.099l0.061 0.006c2.826 1.846 6.287 2.944 10.004 2.944 0.021 0 0.042-0 0.063-0h-0.003c12.072 0 18.672-10 18.672-18.669 0-0.288-0.010-0.57-0.024-0.848 1.299-0.936 2.39-2.064 3.258-3.355l0.030-0.047z"></path>
</symbol>
<symbol id="icon-phone" viewBox="0 0 32 32">
<path fill="currentColor" d="M23 0h-14c-1.654 0-3 1.346-3 3v26c0 1.654 1.346 3 3 3h14c1.654 0 3-1.346 3-3v-26c0-1.654-1.346-3-3-3zM9 2h14c0.552 0 1 0.448 1 1v0 21h-16v-21c0-0.552 0.448-1 1-1v0zM23 30h-14c-0.552 0-1-0.448-1-1v0-3h16v3c0 0.552-0.448 1-1 1v0z"></path>
<path fill="currentColor" d="M10.708 27.478c0.18 0.163 0.293 0.399 0.293 0.66s-0.113 0.497-0.292 0.659l-0.001 0.001c-0.186 0.17-0.435 0.275-0.708 0.275s-0.522-0.104-0.709-0.275l0.001 0.001c-0.18-0.163-0.293-0.399-0.293-0.66s0.113-0.497 0.292-0.659l0.001-0.001c0.186-0.17 0.435-0.275 0.708-0.275s0.522 0.104 0.709 0.275l-0.001-0.001z"></path>
</symbol>
<symbol id="icon-logo-6" viewBox="0 0 80 46">
<path fill="currentColor" d="M44.7405 21.3533C44.3226 20.7432 44.1226 20.022 44.1701 19.2962V16.3135C44.1701 15.3992 44.3592 14.7044 44.7373 14.2291C45.1155 13.7537 45.7651 13.517 46.686 13.5191C47.5513 13.5191 48.1656 13.7213 48.5288 14.1259C48.925 14.6421 49.1178 15.2733 49.0736 15.91V16.6109H47.5256V15.9009C47.5311 15.6685 47.5161 15.4361 47.4808 15.2061C47.4585 15.0488 47.3806 14.9033 47.2596 14.7934C47.1007 14.675 46.9004 14.6175 46.6988 14.6326C46.4867 14.6176 46.2764 14.6782 46.1091 14.8025C45.9742 14.9243 45.8844 15.0838 45.8527 15.2576C45.8083 15.5011 45.7879 15.7479 45.7918 15.995V19.6147C45.7674 19.964 45.8357 20.3134 45.9905 20.6312C46.0675 20.7387 46.1744 20.824 46.2994 20.8775C46.4244 20.9311 46.5626 20.9508 46.6988 20.9346C46.8971 20.9501 47.0939 20.8912 47.2468 20.7708C47.373 20.6523 47.4541 20.4976 47.4776 20.3308C47.5137 20.0907 47.5298 19.8482 47.5256 19.6056V18.8714H49.0736V19.5419C49.1171 20.2056 48.929 20.8644 48.5384 21.4171C48.1827 21.86 47.5769 22.0815 46.686 22.0815C45.795 22.0815 45.1219 21.8449 44.7405 21.3533Z"/>
<path fill="currentColor" d="M51.1857 21.3837C50.7947 20.9194 50.5992 20.2428 50.5992 19.3477V16.2104C50.5992 15.3244 50.7947 14.6538 51.1857 14.1987C51.5767 13.7436 52.2305 13.517 53.1471 13.5191C54.0573 13.5191 54.7079 13.7456 55.0989 14.1987C55.4899 14.6538 55.6886 15.3244 55.6886 16.2104V19.3477C55.6886 20.2337 55.4899 20.9134 55.0925 21.3806C54.6951 21.8479 54.0477 22.0815 53.1471 22.0815C52.2466 22.0815 51.5799 21.8449 51.1857 21.3837ZM53.8682 20.6312C54.0083 20.3404 54.072 20.0219 54.0541 19.7027V15.8615C54.0721 15.5485 54.0094 15.2361 53.8714 14.9512C53.7929 14.8414 53.6833 14.7547 53.5553 14.7011C53.4272 14.6474 53.2858 14.629 53.1471 14.6478C53.0081 14.6294 52.8664 14.6481 52.7379 14.7017C52.6094 14.7553 52.4992 14.8417 52.4196 14.9512C52.2787 15.2353 52.2148 15.5481 52.2337 15.8615V19.7209C52.2143 20.0402 52.2781 20.3591 52.4196 20.6494C52.5099 20.7473 52.6212 20.8257 52.7461 20.8795C52.8711 20.9332 53.0067 20.961 53.1439 20.961C53.2812 20.961 53.4168 20.9332 53.5417 20.8795C53.6666 20.8257 53.778 20.7473 53.8682 20.6494V20.6312Z"/>
<path fill="currentColor" d="M57.5505 13.6106H59.2171L60.4702 19.3992L61.7522 13.6106H63.3739L63.5374 21.9658H62.3387L62.2105 16.159L60.9734 21.9658H60.0119L58.7299 16.1378L58.6114 21.9658H57.3999L57.5505 13.6106Z"/>
<path fill="currentColor" d="M65.4059 13.6106H68.0018C69.4974 13.6106 70.2452 14.4014 70.2452 15.9831C70.2452 17.498 69.4579 18.2544 67.8832 18.2524H66.9987V21.9658H65.3962L65.4059 13.6106ZM67.6236 17.1814C67.782 17.2005 67.9428 17.1867 68.0949 17.1411C68.2471 17.0956 68.387 17.0193 68.505 16.9175C68.6887 16.6353 68.7698 16.3039 68.7357 15.974C68.7441 15.7191 68.7183 15.4642 68.6588 15.2155C68.636 15.1324 68.5959 15.0545 68.5408 14.9863C68.4858 14.918 68.417 14.8608 68.3383 14.8181C68.1159 14.7171 67.87 14.6711 67.6236 14.6846H67.0019V17.1814H67.6236Z"/>
<path fill="currentColor" d="M72.5561 13.6106H74.2771L76.043 21.9658H74.5495L74.2002 20.0393H72.665L72.3061 21.9658H70.7902L72.5561 13.6106ZM74.0271 19.0715L73.4278 15.5644L72.8285 19.0715H74.0271Z"/>
<path fill="currentColor" d="M77.4691 13.6106H78.5909L80.7382 18.3768V13.6106H82.0682V21.9658H81.001L78.8409 16.9903V21.9658H77.4659L77.4691 13.6106Z"/>
<path fill="currentColor" d="M85.1834 18.7801L83.3983 13.6223H84.9014L85.9911 16.9354L87.0134 13.6223H88.4845L86.7218 18.7801V21.9658H85.1834V18.7801Z"/>
<path fill="currentColor" d="M47.2148 25.6189V26.0558H45.9072V29.4509H45.3592V26.0558H44.0452V25.6189H47.2148Z"/>
<path fill="currentColor" d="M51.3138 29.4512H50.8908C50.8478 29.4537 50.8054 29.4407 50.7722 29.4148C50.7402 29.3925 50.7157 29.362 50.7017 29.3268L50.3235 28.4166H48.5095L48.1313 29.3268C48.1206 29.3649 48.1008 29.4001 48.0736 29.43C48.0401 29.4554 47.9979 29.4683 47.955 29.4664H47.532L49.1345 25.6345H49.6921L51.3138 29.4512ZM48.6601 28.0283H50.1729L49.5319 26.4688C49.4846 26.3509 49.445 26.2303 49.4133 26.1078C49.3909 26.1806 49.3716 26.2504 49.3524 26.3111L49.2947 26.4719L48.6601 28.0283Z"/>
<path fill="currentColor" d="M54.0765 29.0748C54.1769 29.0798 54.2774 29.0798 54.3778 29.0748C54.4644 29.0664 54.5502 29.0512 54.6342 29.0293C54.7127 29.0111 54.7898 28.9878 54.8649 28.9595C54.9354 28.9322 55.0059 28.8988 55.0797 28.8655V28.0037H54.4387C54.4228 28.0046 54.407 28.0023 54.3921 27.9971C54.3772 27.9919 54.3636 27.9838 54.3521 27.9734C54.3416 27.9648 54.3333 27.954 54.3277 27.9419C54.3222 27.9299 54.3196 27.9167 54.3201 27.9036V27.6093H55.5636V29.0779C55.4621 29.1466 55.3549 29.2075 55.2431 29.2599C55.1288 29.3133 55.0098 29.357 54.8874 29.3904C54.7563 29.4269 54.6223 29.4533 54.4867 29.4693C54.3314 29.4856 54.1752 29.4937 54.0188 29.4936C53.7424 29.4958 53.4682 29.4473 53.2112 29.351C52.9712 29.2596 52.7532 29.1234 52.5702 28.9504C52.3918 28.7757 52.2513 28.5695 52.1568 28.3436C52.0557 28.0896 52.0057 27.8199 52.0093 27.5486C52.006 27.2755 52.0548 27.0041 52.1536 26.7475C52.2457 26.5204 52.3865 26.3138 52.567 26.1406C52.7499 25.9682 52.968 25.833 53.208 25.7431C53.4824 25.6454 53.7737 25.597 54.0669 25.6005C54.2161 25.6003 54.3651 25.6115 54.5124 25.6339C54.6426 25.654 54.7704 25.6865 54.8938 25.731C55.0059 25.7709 55.1133 25.8217 55.2143 25.8827C55.3125 25.9426 55.4057 26.0095 55.4931 26.083L55.3393 26.3197C55.3272 26.3413 55.3093 26.3594 55.2873 26.3722C55.2653 26.3851 55.2401 26.392 55.2143 26.3925C55.1788 26.3914 55.1444 26.3809 55.1149 26.3621C55.0668 26.3379 55.0156 26.3075 54.9579 26.2711C54.8897 26.2307 54.8179 26.1961 54.7431 26.1679C54.6476 26.1317 54.549 26.1032 54.4483 26.083C54.314 26.0596 54.1777 26.0484 54.0413 26.0496C53.8298 26.0474 53.6199 26.0834 53.4227 26.1558C53.2444 26.2235 53.0836 26.3271 52.9516 26.4592C52.8188 26.597 52.7173 26.7592 52.6535 26.9356C52.5103 27.3507 52.5103 27.7981 52.6535 28.2131C52.7237 28.3933 52.8328 28.5576 52.974 28.6955C53.1055 28.827 53.265 28.9304 53.4419 28.999C53.6457 29.0652 53.8617 29.091 54.0765 29.0748Z"/>
<path fill="currentColor" d="M59.1851 29.014H60.9351V29.4509H58.6499V25.6189H59.198L59.1851 29.014Z"/>
<path fill="currentColor" d="M62.7555 29.4509H62.2074V25.6189H62.7555V29.4509Z"/>
<path fill="currentColor" d="M64.7938 25.6371C64.8263 25.6547 64.8547 25.6785 64.8771 25.7069L67.2199 28.5955C67.2167 28.5501 67.2167 28.5045 67.2199 28.459C67.2199 28.4165 67.2199 28.374 67.2199 28.3346V25.6038H67.6974V29.4512H67.4218C67.3809 29.4543 67.34 29.447 67.3032 29.43C67.2699 29.4109 67.2406 29.3862 67.2167 29.3571L64.8771 26.4716C64.8771 26.5171 64.8771 26.5595 64.8771 26.602C64.8771 26.6445 64.8771 26.684 64.8771 26.7204V29.4512H64.4188V25.6189H64.7041C64.735 25.619 64.7656 25.6252 64.7938 25.6371Z"/>
<path fill="currentColor" d="M71.7324 25.6189V26.0406H69.7903V27.3059H71.3639V27.7124H69.7903V29.0202H71.7324V29.4419H69.2262V25.6189H71.7324Z" />
<path fill="currentColor" d="M14.3035 1.95391L38.6385 8.49527V31.4173L14.3035 24.879V1.95391ZM12.7427 0V25.9925L40.196 33.3743V7.38482L12.7427 0Z" />
<path fill="currentColor" d="M27.4565 45.4402L0 38.0522V12.0625L27.4565 19.4474V45.4402Z"/>
<path fill="currentColor" d="M13.1978 1.65958L37.2155 8.11891L27.0014 17.7912L2.98057 11.3288L13.1978 1.65958ZM12.7427 0L0 12.0631L27.4565 19.4478L40.196 7.38469L12.7427 0Z"/>
<path fill="currentColor" d="M29.0013 43.978L40.196 33.3774L29.0013 30.3647V43.978Z" />
</symbol>
<symbol id="icon-logo-5" viewBox="0 0 32 32">
<path fill="currentColor" d="M2.434 24.558c0.125 0.155 0.191 0.349 0.188 0.548 0.001 0.013 0.001 0.028 0.001 0.043 0 0.258-0.112 0.49-0.291 0.649l-0.001 0.001c-0.242 0.184-0.542 0.273-0.846 0.253h-1.486v-3.474h1.455c0.025-0.002 0.053-0.003 0.082-0.003 0.272 0 0.523 0.088 0.728 0.236l-0.004-0.002c0.174 0.147 0.283 0.364 0.283 0.608 0 0.015-0 0.029-0.001 0.044l0-0.002c0.009 0.191-0.052 0.38-0.169 0.532-0.113 0.138-0.269 0.233-0.443 0.271 0.197 0.036 0.375 0.141 0.502 0.297zM0.692 24.033h0.621c0.142 0.011 0.282-0.030 0.396-0.116 0.083-0.076 0.135-0.184 0.135-0.305 0-0.012-0.001-0.024-0.002-0.036l0 0.002c0.001-0.009 0.001-0.019 0.001-0.029 0-0.122-0.051-0.232-0.133-0.309l-0-0c-0.099-0.074-0.224-0.119-0.359-0.119-0.017 0-0.034 0.001-0.051 0.002l0.002-0h-0.611v0.911zM1.77 25.365c0.091-0.080 0.148-0.196 0.148-0.325 0-0.010-0-0.019-0.001-0.029l0 0.001c0-0.008 0.001-0.017 0.001-0.025 0-0.132-0.058-0.25-0.15-0.331l-0.001-0c-0.105-0.079-0.238-0.127-0.382-0.127-0.014 0-0.029 0-0.043 0.001l0.002-0h-0.651v0.955h0.661c0.149 0.009 0.296-0.034 0.418-0.12zM5.409 26.051l-0.81-1.358h-0.304v1.358h-0.696v-3.474h1.318c0.027-0.002 0.059-0.003 0.090-0.003 0.316 0 0.605 0.113 0.83 0.3l-0.002-0.002c0.196 0.2 0.316 0.474 0.316 0.776 0 0.249-0.082 0.479-0.221 0.664l0.002-0.003c-0.163 0.187-0.385 0.312-0.629 0.353l0.862 1.388h-0.757zM4.295 24.22h0.569c0.396 0 0.593-0.175 0.593-0.526 0.001-0.009 0.001-0.019 0.001-0.030 0-0.14-0.056-0.268-0.146-0.361l0 0c-0.106-0.089-0.244-0.143-0.395-0.143-0.019 0-0.037 0.001-0.056 0.002l0.002-0h-0.577l0.007 1.058zM9.215 25.352h-1.387l-0.245 0.7h-0.73l1.275-3.435h0.789l1.269 3.435h-0.73l-0.24-0.699zM9.029 24.826l-0.507-1.466-0.507 1.466h1.014zM13.98 26.051h-0.692l-1.55-2.362v2.362h-0.689v-3.474h0.689l1.55 2.376v-2.376h0.692v3.474zM17.925 25.219c-0.145 0.263-0.359 0.473-0.617 0.609l-0.008 0.004c-0.301 0.152-0.635 0.228-0.972 0.219h-1.231v-3.474h1.231c0.016-0 0.034-0.001 0.053-0.001 0.335 0 0.651 0.079 0.93 0.22l-0.012-0.005c0.265 0.133 0.483 0.345 0.626 0.606 0.136 0.265 0.216 0.579 0.216 0.911s-0.080 0.646-0.222 0.923l0.005-0.011zM17.134 25.136c0.19-0.221 0.306-0.512 0.306-0.829s-0.116-0.608-0.308-0.831l0.001 0.002c-0.21-0.185-0.487-0.298-0.791-0.298-0.026 0-0.052 0.001-0.078 0.003l0.004-0h-0.48v2.249h0.481c0.022 0.002 0.049 0.002 0.075 0.002 0.303 0 0.58-0.113 0.792-0.299l-0.001 0.001zM9.648 3.254s8.923 3.382 8.734 8.277v8.278s-8.917-3.384-8.73-8.278l-0.004-8.277zM26.331 17.871c1.597-1.117 3.527-1.869 5.616-2.093l0.054-0.005v-2.591c-2.386 0.941-4.331 2.57-5.641 4.642l-0.028 0.048z"></path>
<path fill="currentColor" d="M25.318 18.652c1.393-2.778 3.739-4.906 6.598-5.985l0.084-0.028v-7.467s-12.708 4.818-12.439 11.787v11.786s0.566-0.215 1.457-0.619c0-0.377 0-0.757 0.040-1.139 0.279-3.35 1.866-6.283 4.243-8.322l0.017-0.014z"></path>
<path fill="currentColor" d="M24.11 23.030c0.067-0.817 0.215-1.626 0.445-2.414-1.624 1.912-2.631 4.393-2.691 7.106l-0 0.013c1.035-0.498 1.835-0.928 2.618-1.387l-0.174 0.094c-0.152-0.724-0.239-1.555-0.239-2.406 0-0.354 0.015-0.705 0.044-1.051l-0.003 0.045zM24.615 23.073c-0.025 0.286-0.039 0.619-0.039 0.956 0 0.755 0.071 1.493 0.208 2.208l-0.012-0.073c3.472-2.086 7.373-5.309 7.223-9.203v-0.34c-2.586 0.299-4.865 1.425-6.61 3.102l0.004-0.004c-0.399 0.983-0.675 2.122-0.771 3.312l-0.003 0.041z"></path>
</symbol>
<symbol id="icon-logo-4" viewBox="0 0 80 42">
<path fill="currentColor" d="M12.402 12.8306H12.3992C10.1369 12.8306 8.30298 14.6177 8.30298 16.8223V16.8249C8.30298 19.0295 10.1369 20.8167 12.3992 20.8167H12.402C14.6643 20.8167 16.4982 19.0295 16.4982 16.8249V16.8223C16.4982 14.6177 14.6643 12.8306 12.402 12.8306Z"/>
<path fill="currentColor" d="M42.6367 11.5545C42.6303 8.49242 41.3794 5.55752 39.1578 3.39207C36.9362 1.22661 33.9248 0.00695286 30.7827 0V0C27.6396 0.00556265 24.6268 1.22461 22.404 3.39022C20.1813 5.55582 18.9296 8.49151 18.9232 11.5545V28.4402C18.9232 28.4402 42.634 25.8667 42.6367 11.5571V11.5545Z"/>
<path fill="currentColor" d="M-0.00012207 33.9823C0.00557697 36.1129 0.876434 38.1547 2.42215 39.6615C3.96787 41.1683 6.06278 42.0177 8.24911 42.0239C10.435 42.0177 12.5295 41.1687 14.0751 39.6625C15.6208 38.1562 16.4919 36.1151 16.4983 33.9849V22.2356C16.4983 22.2356 -0.00012207 24.0276 -0.00012207 33.9823ZM8.24911 36.0874C7.82186 36.0874 7.40421 35.964 7.04897 35.7326C6.69373 35.5013 6.41685 35.1726 6.25335 34.7879C6.08985 34.4032 6.04707 33.98 6.13042 33.5716C6.21377 33.1632 6.41951 32.7881 6.72162 32.4937C7.02373 32.1993 7.40864 31.9988 7.82767 31.9176C8.24671 31.8364 8.68105 31.8781 9.07578 32.0374C9.4705 32.1967 9.80787 32.4665 10.0452 32.8127C10.2826 33.1589 10.4093 33.5659 10.4093 33.9823C10.4104 34.2594 10.3553 34.534 10.2472 34.7903C10.1391 35.0466 9.98016 35.2796 9.77946 35.476C9.57876 35.6723 9.34027 35.828 9.07765 35.9343C8.81503 36.0406 8.53347 36.0953 8.24911 36.0953V36.0874Z"/>
<path fill="currentColor" d="M25.089 34.7812H23.4015V36.5244H22.5226V32.2588H25.2999V32.9707H23.4015V34.0723H25.089V34.7812ZM29.3136 34.4883C29.3136 34.9082 29.2394 35.2764 29.0909 35.5928C28.9425 35.9092 28.7296 36.1533 28.4523 36.3252C28.1769 36.4971 27.8605 36.583 27.5031 36.583C27.1495 36.583 26.8341 36.498 26.5568 36.3281C26.2794 36.1582 26.0646 35.916 25.9122 35.6016C25.7599 35.2852 25.6827 34.9219 25.6808 34.5117V34.3008C25.6808 33.8809 25.756 33.5117 25.9064 33.1934C26.0587 32.873 26.2726 32.6279 26.548 32.458C26.8253 32.2861 27.1417 32.2002 27.4972 32.2002C27.8527 32.2002 28.1681 32.2861 28.4435 32.458C28.7208 32.6279 28.9347 32.873 29.0851 33.1934C29.2374 33.5117 29.3136 33.8799 29.3136 34.2979V34.4883ZM28.423 34.2949C28.423 33.8477 28.3429 33.5078 28.1827 33.2754C28.0226 33.043 27.7941 32.9268 27.4972 32.9268C27.2023 32.9268 26.9747 33.042 26.8146 33.2725C26.6544 33.501 26.5734 33.8369 26.5714 34.2803V34.4883C26.5714 34.9238 26.6515 35.2617 26.8116 35.502C26.9718 35.7422 27.2023 35.8623 27.5031 35.8623C27.798 35.8623 28.0245 35.7471 28.1827 35.5166C28.3409 35.2842 28.421 34.9463 28.423 34.5029V34.2949ZM32.1642 35.4053C32.1642 35.2393 32.1056 35.1123 31.9884 35.0244C31.8712 34.9346 31.6603 34.8408 31.3556 34.7432C31.0509 34.6436 30.8097 34.5459 30.632 34.4502C30.1476 34.1885 29.9054 33.8359 29.9054 33.3926C29.9054 33.1621 29.9698 32.957 30.0988 32.7773C30.2296 32.5957 30.4161 32.4541 30.6583 32.3525C30.9025 32.251 31.1759 32.2002 31.4786 32.2002C31.7833 32.2002 32.0548 32.2559 32.2931 32.3672C32.5314 32.4766 32.7159 32.6318 32.8468 32.833C32.9796 33.0342 33.046 33.2627 33.046 33.5186H32.1671C32.1671 33.3232 32.1056 33.1719 31.9825 33.0645C31.8595 32.9551 31.6866 32.9004 31.464 32.9004C31.2491 32.9004 31.0822 32.9463 30.963 33.0381C30.8439 33.1279 30.7843 33.2471 30.7843 33.3955C30.7843 33.5342 30.8536 33.6504 30.9923 33.7441C31.1329 33.8379 31.339 33.9258 31.6105 34.0078C32.1105 34.1582 32.4747 34.3447 32.7032 34.5674C32.9318 34.79 33.046 35.0674 33.046 35.3994C33.046 35.7686 32.9064 36.0586 32.6271 36.2695C32.3478 36.4785 31.9718 36.583 31.4991 36.583C31.171 36.583 30.8722 36.5234 30.6027 36.4043C30.3331 36.2832 30.1271 36.1182 29.9845 35.9092C29.8439 35.7002 29.7736 35.458 29.7736 35.1826H30.6554C30.6554 35.6533 30.9366 35.8887 31.4991 35.8887C31.7081 35.8887 31.8712 35.8467 31.9884 35.7627C32.1056 35.6768 32.1642 35.5576 32.1642 35.4053ZM36.8546 32.9707H35.548V36.5244H34.6691V32.9707H33.38V32.2588H36.8546V32.9707ZM39.9249 34.6758H38.2374V35.8184H40.2179V36.5244H37.3585V32.2588H40.212V32.9707H38.2374V33.9873H39.9249V34.6758ZM42.3126 34.9629H41.6124V36.5244H40.7335V32.2588H42.3185C42.8224 32.2588 43.2111 32.3711 43.4845 32.5957C43.7579 32.8203 43.8947 33.1377 43.8947 33.5479C43.8947 33.8389 43.8312 34.082 43.7042 34.2773C43.5792 34.4707 43.3888 34.625 43.1329 34.7402L44.0558 36.4834V36.5244H43.1124L42.3126 34.9629ZM41.6124 34.251H42.3214C42.5421 34.251 42.713 34.1953 42.8341 34.084C42.9552 33.9707 43.0157 33.8154 43.0157 33.6182C43.0157 33.417 42.9581 33.2588 42.8429 33.1436C42.7296 33.0283 42.5548 32.9707 42.3185 32.9707H41.6124V34.251ZM46.9386 35.0215V36.5244H46.0597V32.2588H47.7238C48.0441 32.2588 48.3253 32.3174 48.5675 32.4346C48.8116 32.5518 48.9991 32.7188 49.13 32.9355C49.2609 33.1504 49.3263 33.3955 49.3263 33.6709C49.3263 34.0889 49.1827 34.4189 48.8956 34.6611C48.6105 34.9014 48.215 35.0215 47.7091 35.0215H46.9386ZM46.9386 34.3096H47.7238C47.9562 34.3096 48.1329 34.2549 48.254 34.1455C48.3771 34.0361 48.4386 33.8799 48.4386 33.6768C48.4386 33.4678 48.3771 33.2988 48.254 33.1699C48.131 33.041 47.9611 32.9746 47.7443 32.9707H46.9386V34.3096ZM52.4991 34.6758H50.8116V35.8184H52.7921V36.5244H49.9327V32.2588H52.7863V32.9707H50.8116V33.9873H52.4991V34.6758ZM56.5773 32.9707H55.2706V36.5244H54.3917V32.9707H53.1027V32.2588H56.5773V32.9707ZM59.6476 34.6758H57.9601V35.8184H59.9406V36.5244H57.0812V32.2588H59.9347V32.9707H57.9601V33.9873H59.6476V34.6758ZM62.0353 34.9629H61.3351V36.5244H60.4562V32.2588H62.0411C62.545 32.2588 62.9337 32.3711 63.2072 32.5957C63.4806 32.8203 63.6173 33.1377 63.6173 33.5479C63.6173 33.8389 63.5538 34.082 63.4269 34.2773C63.3019 34.4707 63.1115 34.625 62.8556 34.7402L63.7784 36.4834V36.5244H62.8351L62.0353 34.9629ZM61.3351 34.251H62.0441C62.2648 34.251 62.4357 34.1953 62.5568 34.084C62.6779 33.9707 62.7384 33.8154 62.7384 33.6182C62.7384 33.417 62.6808 33.2588 62.5656 33.1436C62.4523 33.0283 62.2775 32.9707 62.0411 32.9707H61.3351V34.251ZM66.5001 35.4053C66.5001 35.2393 66.4415 35.1123 66.3243 35.0244C66.2072 34.9346 65.9962 34.8408 65.6915 34.7432C65.3868 34.6436 65.1456 34.5459 64.9679 34.4502C64.4835 34.1885 64.2413 33.8359 64.2413 33.3926C64.2413 33.1621 64.3058 32.957 64.4347 32.7773C64.5656 32.5957 64.7521 32.4541 64.9943 32.3525C65.2384 32.251 65.5118 32.2002 65.8146 32.2002C66.1193 32.2002 66.3907 32.2559 66.629 32.3672C66.8673 32.4766 67.0519 32.6318 67.1827 32.833C67.3156 33.0342 67.382 33.2627 67.382 33.5186H66.5031C66.5031 33.3232 66.4415 33.1719 66.3185 33.0645C66.1954 32.9551 66.0226 32.9004 65.7999 32.9004C65.5851 32.9004 65.4181 32.9463 65.299 33.0381C65.1798 33.1279 65.1202 33.2471 65.1202 33.3955C65.1202 33.5342 65.1896 33.6504 65.3282 33.7441C65.4689 33.8379 65.6749 33.9258 65.9464 34.0078C66.4464 34.1582 66.8107 34.3447 67.0392 34.5674C67.2677 34.79 67.382 35.0674 67.382 35.3994C67.382 35.7686 67.2423 36.0586 66.963 36.2695C66.6837 36.4785 66.3077 36.583 65.8351 36.583C65.507 36.583 65.2081 36.5234 64.9386 36.4043C64.6691 36.2832 64.463 36.1182 64.3204 35.9092C64.1798 35.7002 64.1095 35.458 64.1095 35.1826H64.9913C64.9913 35.6533 65.2726 35.8887 65.8351 35.8887C66.0441 35.8887 66.2072 35.8467 66.3243 35.7627C66.4415 35.6768 66.5001 35.5576 66.5001 35.4053Z"/>
</symbol>
<symbol id="icon-logo-3" viewBox="0 0 32 32">
<path fill="currentColor" d="M5.466 31.103c0.023 0.001 0.044 0.010 0.060 0.025v0l0.153 0.161c-0.119 0.13-0.266 0.234-0.431 0.304-0.194 0.077-0.401 0.115-0.61 0.109-0.009 0-0.020 0-0.031 0-0.196 0-0.382-0.038-0.554-0.106l0.010 0.004c-0.332-0.134-0.588-0.397-0.709-0.725l-0.003-0.009c-0.061-0.164-0.097-0.353-0.097-0.55 0-0.007 0-0.015 0-0.022v0.001c-0-0.007-0-0.015-0-0.023 0-0.198 0.038-0.387 0.108-0.56l-0.004 0.010c0.067-0.165 0.168-0.316 0.298-0.444 0.13-0.127 0.286-0.225 0.459-0.29 0.188-0.070 0.389-0.104 0.591-0.102 0.188-0.004 0.375 0.027 0.55 0.093 0.151 0.063 0.29 0.149 0.412 0.257l-0.129 0.171c-0.009 0.012-0.020 0.023-0.032 0.031l-0 0c-0.013 0.009-0.028 0.014-0.045 0.014-0.002 0-0.004-0-0.006-0l0 0c-0.021-0.001-0.040-0.008-0.056-0.019l0 0-0.068-0.045-0.096-0.059c-0.087-0.046-0.189-0.082-0.296-0.101l-0.006-0.001c-0.063-0.011-0.135-0.018-0.209-0.018-0.007 0-0.013 0-0.020 0h0.001c-0.005-0-0.010-0-0.016-0-0.147 0-0.288 0.028-0.417 0.079l0.008-0.003c-0.13 0.051-0.241 0.124-0.333 0.216l0-0c-0.095 0.099-0.169 0.216-0.216 0.342-0.054 0.145-0.081 0.298-0.079 0.452-0.002 0.156 0.025 0.313 0.079 0.46 0.046 0.126 0.119 0.242 0.212 0.341 0.088 0.093 0.196 0.165 0.318 0.212 0.125 0.049 0.259 0.074 0.394 0.073 0.078 0.001 0.156-0.004 0.234-0.015 0.127-0.015 0.247-0.057 0.354-0.122 0.054-0.034 0.104-0.071 0.151-0.113 0.019-0.017 0.044-0.029 0.072-0.030h0zM9.888 30.296c0.002 0.194-0.033 0.387-0.103 0.568-0.067 0.172-0.165 0.319-0.288 0.44l-0 0c-0.126 0.123-0.276 0.221-0.444 0.286l-0.009 0.003c-0.173 0.065-0.373 0.102-0.582 0.102s-0.409-0.037-0.594-0.106l0.012 0.004c-0.175-0.069-0.325-0.167-0.45-0.29l0 0c-0.123-0.123-0.222-0.271-0.288-0.436l-0.003-0.009c-0.065-0.169-0.103-0.364-0.103-0.568s0.038-0.399 0.107-0.579l-0.004 0.011c0.065-0.166 0.164-0.318 0.29-0.447 0.126-0.119 0.276-0.214 0.441-0.276l0.009-0.003c0.173-0.066 0.373-0.104 0.582-0.104s0.409 0.038 0.594 0.108l-0.012-0.004c0.17 0.066 0.324 0.164 0.452 0.29 0.127 0.127 0.224 0.275 0.289 0.439 0.071 0.182 0.106 0.376 0.104 0.571zM9.486 30.296c0-0.007 0-0.016 0-0.024 0-0.155-0.027-0.303-0.076-0.441l0.003 0.009c-0.087-0.256-0.278-0.457-0.522-0.554l-0.006-0.002c-0.126-0.047-0.271-0.075-0.423-0.075s-0.297 0.027-0.432 0.078l0.009-0.003c-0.251 0.099-0.443 0.299-0.528 0.55l-0.002 0.006c-0.097 0.298-0.097 0.615 0 0.912 0.087 0.256 0.279 0.457 0.524 0.552l0.006 0.002c0.273 0.097 0.573 0.097 0.846 0 0.124-0.048 0.234-0.121 0.324-0.214 0.092-0.1 0.162-0.216 0.205-0.341 0.052-0.147 0.076-0.301 0.073-0.456zM12.904 30.774l0.041 0.102c0.015-0.036 0.028-0.069 0.044-0.102 0.017-0.040 0.034-0.073 0.052-0.105l-0.002 0.005 0.978-1.694c0.019-0.030 0.037-0.048 0.056-0.053 0.020-0.006 0.043-0.009 0.066-0.009 0.005 0 0.010 0 0.015 0l-0.001-0h0.289v2.755h-0.342v-2.11c-0.001-0.014-0.001-0.031-0.001-0.048s0.001-0.033 0.001-0.050l-0 0.002-0.984 1.718c-0.013 0.026-0.033 0.048-0.057 0.062l-0.001 0c-0.023 0.014-0.052 0.022-0.082 0.022-0.001 0-0.002 0-0.002-0h-0.055c-0.030 0.001-0.060-0.007-0.084-0.022s-0.044-0.036-0.057-0.062l-0-0.001-1.013-1.73v2.212h-0.331v-2.75h0.289c0.004-0 0.009-0 0.014-0 0.024 0 0.046 0.003 0.068 0.010l-0.002-0c0.024 0.011 0.042 0.029 0.053 0.052l0 0.001 0.999 1.696c0.018 0.028 0.035 0.060 0.048 0.094l0.001 0.004zM16.586 30.638v1.031h-0.383v-2.75h0.854c0.010-0 0.021-0 0.033-0 0.158 0 0.311 0.022 0.455 0.063l-0.012-0.003c0.124 0.034 0.239 0.092 0.337 0.171 0.085 0.074 0.15 0.167 0.191 0.27 0.045 0.112 0.067 0.232 0.066 0.352 0.002 0.121-0.022 0.24-0.071 0.352-0.049 0.109-0.119 0.201-0.205 0.274l-0.001 0.001c-0.095 0.080-0.209 0.143-0.333 0.181l-0.007 0.002c-0.149 0.045-0.305 0.067-0.461 0.064l-0.463-0.007zM16.586 30.342h0.464c0.1 0.002 0.201-0.013 0.296-0.042 0.083-0.027 0.154-0.068 0.215-0.12l-0.001 0.001c0.056-0.049 0.1-0.11 0.129-0.178l0.001-0.003c0.029-0.066 0.046-0.144 0.046-0.225 0-0.003-0-0.005-0-0.008v0c0-0.008 0.001-0.018 0.001-0.028 0-0.071-0.015-0.138-0.041-0.199l0.001 0.003c-0.032-0.074-0.077-0.137-0.133-0.188l-0-0c-0.126-0.094-0.285-0.15-0.457-0.15-0.020 0-0.040 0.001-0.060 0.002l0.003-0h-0.464v1.134zM21.731 31.673h-0.302c-0.002 0-0.004 0-0.006 0-0.030 0-0.057-0.010-0.079-0.026l0 0c-0.021-0.017-0.038-0.038-0.049-0.063l-0-0.001-0.26-0.665h-1.307l-0.27 0.665c-0.011 0.025-0.027 0.046-0.047 0.061l-0 0c-0.022 0.017-0.051 0.028-0.082 0.028-0.002 0-0.003-0-0.005-0h-0.302l1.148-2.756h0.398l1.164 2.756zM19.836 30.65h1.079l-0.455-1.122c-0.030-0.071-0.060-0.157-0.083-0.245l-0.003-0.013-0.044 0.144c-0.015 0.049-0.029 0.088-0.045 0.126l0.003-0.009-0.452 1.119zM23.385 28.93c0.023 0.013 0.043 0.030 0.058 0.050l1.674 2.076v-2.139h0.342v2.756h-0.191c-0.001 0-0.003 0-0.005 0-0.027 0-0.052-0.006-0.074-0.017l0.001 0c-0.024-0.014-0.044-0.031-0.061-0.051l-0-0-1.674-2.075c0.002 0.031 0.002 0.063 0 0.095v2.049h-0.342v-2.756h0.203c0.024 0 0.047 0.004 0.068 0.013zM28.281 30.577v1.094h-0.383v-1.094l-1.058-1.66h0.342c0.002-0 0.005-0 0.008-0 0.028 0 0.054 0.009 0.075 0.024l-0-0c0.021 0.018 0.038 0.038 0.052 0.061l0.001 0.001 0.662 1.070c0.026 0.045 0.049 0.088 0.068 0.128s0.034 0.078 0.048 0.116l0.050-0.118c0.021-0.049 0.043-0.090 0.068-0.13l-0.002 0.004 0.653-1.078c0.014-0.022 0.031-0.042 0.050-0.059l0-0c0.020-0.017 0.047-0.027 0.076-0.027 0.002 0 0.004 0 0.006 0h0.346l-1.060 1.667zM12.715 24.293c0.167 0.020 0.335 0.037 0.506 0.051 2.582-1.101 4.767-2.902 6.281-5.18s2.29-4.93 2.231-7.625l-2.846-2.712c0.189 0.894 0.297 1.921 0.297 2.974 0 2.015-0.396 3.937-1.115 5.694l0.036-0.1c-1.090 2.731-2.957 5.12-5.39 6.899z"></path>
<path fill="currentColor"  d="M11.699 24.167l0.077 0.015c2.6-1.773 4.583-4.247 5.692-7.104 0.627-1.564 0.991-3.378 0.991-5.276 0-1.296-0.17-2.553-0.488-3.748l0.023 0.101-4.054-3.862c1.269 2.397 2.015 5.239 2.015 8.255 0 0.701-0.040 1.393-0.119 2.074l0.008-0.083c-0.397 3.519-1.834 6.857-4.144 9.628zM25.448 14.724c-0.688 2.962-2.361 5.632-4.77 7.616-0.665 0.553-1.406 1.066-2.191 1.51l-0.075 0.039c2.039-0.578 3.804-1.556 5.285-2.851l-0.016 0.013c1.465-1.281 2.625-2.875 3.381-4.679l0.031-0.084-1.645-1.565z"></path>
<path fill="currentColor" d="M24.804 14.288l-2.341-2.23c-0.053 2.681-0.865 5.162-2.23 7.249l0.032-0.053c-1.394 2.169-3.373 3.943-5.729 5.137h0.012c0.525 0 1.049-0.030 1.572-0.089 2.251-0.884 4.15-2.237 5.649-3.95l0.014-0.017c1.454-1.66 2.512-3.704 3.005-5.958l0.016-0.089zM12.038 2.664l-2.793-2.664c-2.497 0.919-4.644 2.535-6.16 4.636s-2.333 4.589-2.34 7.139c0.010 2.818 1.005 5.552 2.829 7.77s4.372 3.793 7.242 4.476c2.562-2.973 4.061-6.647 4.281-10.488s-0.851-7.648-3.059-10.87zM31.256 13.878c-0.010-3.343-1.409-6.547-3.89-8.91s-5.843-3.696-9.352-3.706c-1.622-0.002-3.23 0.284-4.741 0.841l17.099 16.29c0.559-1.335 0.884-2.886 0.884-4.513 0-0 0-0.001 0-0.001v0z"></path>
</symbol>
<symbol id="icon-logo-2" viewBox="0 0 32 32">
<path fill="currentColor" d="M14.14 1.806h0.084c0.156 0 0.324 0.015 0.49 0.030 0.734 0.052 1.463 0.162 2.18 0.329v-1.762c-0.652-0.172-1.42-0.299-2.207-0.357l-0.042-0.002c-0.254-0.020-0.571-0.035-0.889-0.043l-0.021-0h-0.263c-1.523 0.006-3.040 0.201-4.514 0.582-1.68 0.418-3.293 1.075-4.79 1.948v17.475c1.312-0.729 2.832-1.339 4.431-1.75l0.135-0.029c1.123-0.3 2.433-0.51 3.78-0.586l0.052-0.002h0.052c0.217-0.011 0.433-0.017 0.655-0.018v-1.791c-1.78 0.024-3.493 0.264-5.129 0.695l0.147-0.033c-0.603 0.157-1.185 0.326-1.731 0.513l-0.623 0.212v-13.626l0.266-0.128c1.89-0.918 4.096-1.513 6.425-1.649l0.047-0.002c0.008-0.001 0.018-0.001 0.028-0.001s0.019 0 0.029 0.001l-0.001-0c0.248-0.012 0.497-0.018 0.742-0.018h0.28c0.129 0.003 0.258 0.006 0.388 0.014z"></path>
<path fill="currentColor" d="M18.529 3.651c-0.005 0-0.010 0-0.016 0-0.915 0-1.811-0.077-2.684-0.225l0.094 0.013c-0.277-0.047-0.55-0.103-0.814-0.164v17.275c1.12 0.277 2.271 0.412 3.425 0.404 1.607-0.007 3.162-0.218 4.644-0.61l-0.128 0.029c1.817-0.461 3.412-1.129 4.877-1.995l-0.085 0.047v-17.163c-1.311 0.728-2.83 1.338-4.429 1.751l-0.136 0.030c-1.551 0.399-3.146 0.603-4.746 0.609zM25.437 3.95l0.623-0.209v13.63l-0.266 0.129c-0.903 0.442-1.962 0.834-3.065 1.118l-0.119 0.026c-1.331 0.345-2.699 0.521-4.074 0.527-0.411 0-0.818-0.017-1.214-0.052l-0.426-0.038v-14.017l0.497 0.033c0.361 0.023 0.735 0.034 1.141 0.034 1.841-0.007 3.622-0.248 5.32-0.696l-0.147 0.033c0.581-0.154 1.158-0.326 1.731-0.518zM5.377 25.977c-0.167-0.173-0.401-0.281-0.661-0.281-0.011 0-0.023 0-0.034 0.001l0.002-0c-0.004-0-0.009-0-0.014-0-0.139 0-0.272 0.028-0.393 0.078l0.007-0.003c-0.237 0.095-0.42 0.28-0.51 0.512l-0.002 0.006c-0.049 0.123-0.073 0.254-0.071 0.386v2.335c-0.006 0.164 0.026 0.328 0.092 0.479 0.055 0.12 0.135 0.226 0.234 0.313 0.093 0.078 0.202 0.135 0.32 0.166 0.114 0.031 0.231 0.048 0.349 0.048 0.13 0.001 0.258-0.026 0.377-0.081 0.351-0.156 0.591-0.5 0.591-0.901v-0.261h-0.611v0.208c0 0.004 0 0.009 0 0.014 0 0.070-0.013 0.136-0.037 0.198l0.001-0.004c-0.021 0.052-0.051 0.095-0.088 0.132l-0 0c-0.070 0.054-0.159 0.088-0.255 0.089h-0c-0.011 0.001-0.023 0.002-0.036 0.002-0.103 0-0.194-0.050-0.25-0.127l-0.001-0.001c-0.051-0.082-0.082-0.182-0.082-0.289 0-0.008 0-0.016 0.001-0.024l-0 0.001v-2.177c-0.004-0.121 0.022-0.24 0.075-0.349 0.056-0.087 0.153-0.143 0.262-0.143 0.013 0 0.025 0.001 0.038 0.002l-0.002-0c0.003-0 0.008-0 0.012-0 0.107 0 0.201 0.052 0.26 0.131l0.001 0.001c0.063 0.082 0.101 0.187 0.101 0.3 0 0.005-0 0.009-0 0.014v-0.001 0.202h0.604v-0.238c0-0.003 0-0.007 0-0.011 0-0.143-0.027-0.28-0.077-0.405l0.003 0.007c-0.048-0.128-0.117-0.237-0.205-0.329l0 0zM9.002 25.951c-0.186-0.158-0.429-0.255-0.694-0.257h-0c-0.124 0-0.248 0.023-0.364 0.066-0.252 0.090-0.451 0.276-0.557 0.511l-0.002 0.006c-0.062 0.142-0.092 0.297-0.089 0.452v2.239c-0.004 0.158 0.026 0.314 0.089 0.458 0.055 0.121 0.136 0.228 0.237 0.313 0.094 0.086 0.203 0.154 0.322 0.197 0.117 0.043 0.24 0.065 0.364 0.066 0.267-0.001 0.51-0.1 0.695-0.264l-0.001 0.001c0.097-0.087 0.176-0.194 0.23-0.313 0.063-0.144 0.093-0.301 0.089-0.458v-2.239c0-0.006 0-0.014 0-0.021 0-0.156-0.033-0.304-0.092-0.438l0.003 0.007c-0.057-0.128-0.135-0.237-0.23-0.327l-0-0zM8.718 28.969c0.001 0.010 0.002 0.023 0.002 0.035 0 0.114-0.047 0.216-0.123 0.289l-0 0c-0.077 0.065-0.178 0.105-0.287 0.105s-0.21-0.040-0.288-0.105l0.001 0.001c-0.076-0.073-0.123-0.175-0.123-0.289 0-0.012 0.001-0.025 0.002-0.037l-0 0.002v-2.239c-0.001-0.010-0.001-0.022-0.001-0.034 0-0.113 0.047-0.216 0.123-0.289l0-0c0.077-0.065 0.178-0.105 0.287-0.105s0.21 0.040 0.288 0.105l-0.001-0.001c0.076 0.073 0.123 0.175 0.123 0.289 0 0.012-0.001 0.025-0.002 0.037l0-0.002v2.24zM13.764 29.969v-4.24h-0.586l-0.771 2.244h-0.010l-0.777-2.244h-0.58v4.239h0.606v-2.578h0.011l0.593 1.823h0.302l0.598-1.823h0.010v2.578h0.606zM17.205 26.027c-0.093-0.105-0.211-0.185-0.342-0.232-0.124-0.042-0.267-0.066-0.416-0.066-0.008 0-0.016 0-0.024 0l0.001-0h-0.9v4.24h0.604v-1.656h0.311c0.189 0.009 0.376-0.031 0.545-0.116 0.139-0.078 0.251-0.188 0.329-0.32l0.002-0.004c0.070-0.113 0.117-0.238 0.138-0.369 0.021-0.133 0.033-0.287 0.033-0.444 0-0.013-0-0.027-0-0.040l0 0.002c0.006-0.203-0.014-0.407-0.059-0.606-0.043-0.153-0.12-0.284-0.223-0.39l0 0zM16.894 27.319c-0.003 0.081-0.023 0.157-0.057 0.224l0.001-0.003c-0.035 0.065-0.089 0.116-0.154 0.147l-0.002 0.001c-0.075 0.034-0.162 0.054-0.254 0.054-0.011 0-0.022-0-0.033-0.001l0.002 0h-0.276v-1.441h0.311c0.009-0 0.019-0.001 0.029-0.001 0.088 0 0.172 0.020 0.247 0.055l-0.004-0.002c0.062 0.036 0.111 0.090 0.141 0.154l0.001 0.002c0.033 0.074 0.051 0.155 0.053 0.236v0.282c0 0.098 0.006 0.201 0 0.291h-0.006zM20.066 25.729h-0.495l-0.934 4.24h0.604l0.177-0.911h0.823l0.178 0.911h0.604l-0.957-4.24zM19.509 28.481l0.297-1.537h0.011l0.295 1.537h-0.604zM23.969 28.283h-0.011l-0.913-2.554h-0.58v4.24h0.604v-2.55h0.012l0.923 2.549h0.568v-4.239h-0.604v2.554zM27.66 25.729l-0.486 1.686h-0.012l-0.486-1.686h-0.639l0.83 2.448v1.791h0.604v-1.791l0.83-2.447h-0.64zM3.692 31.166h0.291v0.817h0.198v-0.817h0.289v-0.167h-0.778v0.168zM6.14 30.998l-0.382 0.985h0.21l0.081-0.224h0.392l0.084 0.224h0.215l-0.391-0.985h-0.21zM6.109 31.593l0.134-0.365 0.134 0.365h-0.268zM8.559 31.62h0.228v0.127c-0.063 0.051-0.145 0.082-0.234 0.083h-0c-0.004 0-0.009 0-0.014 0-0.079 0-0.149-0.037-0.195-0.094l-0-0c-0.046-0.065-0.073-0.147-0.073-0.234 0-0.008 0-0.016 0.001-0.023l-0 0.001c0-0.219 0.095-0.329 0.283-0.329 0.006-0.001 0.014-0.001 0.021-0.001 0.097 0 0.178 0.067 0.201 0.157l0 0.001 0.194-0.038c-0.042-0.192-0.18-0.289-0.417-0.289-0.004-0-0.008-0-0.013-0-0.127 0-0.244 0.048-0.331 0.127l0-0c-0.088 0.087-0.143 0.208-0.143 0.342 0 0.013 0.001 0.026 0.002 0.038l-0-0.002c-0 0.007-0 0.015-0 0.023 0 0.132 0.048 0.254 0.127 0.347l-0.001-0.001c0.087 0.090 0.209 0.146 0.343 0.146 0.011 0 0.021-0 0.032-0.001l-0.001 0c0.005 0 0.010 0 0.016 0 0.155 0 0.296-0.060 0.402-0.157l-0 0v-0.388h-0.426v0.166zM11.030 30.998h-0.199v0.985h0.689v-0.167h-0.49v-0.817zM13.119 30.998h-0.199v0.985h0.199v-0.985zM15.161 31.655l-0.404-0.657h-0.193v0.985h0.185v-0.643l0.396 0.643h0.198v-0.985h-0.182v0.658zM17.007 31.549h0.49v-0.167h-0.49v-0.215h0.527v-0.168h-0.727v0.985h0.747v-0.167h-0.548v-0.266zM21.484 31.386h-0.388v-0.388h-0.198v0.984h0.198v-0.431h0.388v0.431h0.198v-0.985h-0.198v0.388zM23.342 31.549h0.492v-0.167h-0.492v-0.215h0.529v-0.168h-0.726v0.985h0.746v-0.167h-0.548v-0.266zM25.86 31.55c0.172-0.027 0.258-0.118 0.258-0.274 0.001-0.008 0.002-0.018 0.002-0.028 0-0.079-0.038-0.148-0.098-0.191l-0.001-0c-0.073-0.037-0.159-0.059-0.25-0.059-0.014 0-0.027 0-0.040 0.001l0.002-0h-0.417v0.984h0.198v-0.412h0.039c0.005-0 0.010-0 0.016-0 0.039 0 0.076 0.008 0.109 0.023l-0.002-0.001c0.029 0.018 0.053 0.042 0.070 0.072l0.215 0.313h0.236l-0.12-0.192c-0.054-0.096-0.128-0.175-0.215-0.235l-0.002-0.002zM25.661 31.413h-0.146v-0.247h0.156c0.012-0.001 0.027-0.002 0.042-0.002 0.057 0 0.111 0.009 0.163 0.026l-0.004-0.001c0.026 0.024 0.043 0.058 0.043 0.096 0 0.042-0.020 0.080-0.052 0.104l-0 0c-0.049 0.016-0.106 0.025-0.164 0.025-0.013 0-0.026-0-0.039-0.001l0.002 0zM27.76 31.549h0.49v-0.167h-0.49v-0.215h0.529v-0.168h-0.728v0.985h0.747v-0.167h-0.548v-0.266z"></path>
</symbol>
<symbol id="icon-logo-1" viewBox="0 0 32 32">
<path fill="currentColor" d="M5.44 0l4.677 4.428h13.046v12.351l4.677 4.428v-21.206h-22.4z"></path>
<path fill="currentColor" d="M1.6 4.241v20.6h21.76v-8.188l-13.105-12.407-8.655-0.005zM19.215 21.828h-14.172v-13.855h1.002v12.917h13.17v0.938zM7.866 28.662l0.524-1.078h0.438l-0.764 1.437v0.838h-0.397v-0.838l-0.764-1.437h0.439l0.524 1.078zM10.113 29.329h-0.881l-0.184 0.53h-0.411l0.859-2.275h0.355l0.861 2.275h-0.413l-0.186-0.53zM9.343 29.010h0.659l-0.33-0.944-0.33 0.944zM11.671 29.244c0-0.105 0.029-0.202 0.086-0.289 0.058-0.089 0.17-0.193 0.339-0.314-0.069-0.083-0.131-0.176-0.182-0.276l-0.004-0.008c-0.031-0.066-0.050-0.144-0.052-0.226v-0c0-0.179 0.054-0.319 0.163-0.422s0.254-0.156 0.437-0.156c0.166 0 0.301 0.049 0.406 0.147 0.106 0.097 0.16 0.218 0.16 0.361 0 0.001 0 0.002 0 0.003 0 0.096-0.027 0.186-0.074 0.262l0.001-0.002c-0.063 0.095-0.142 0.174-0.233 0.236l-0.003 0.002-0.155 0.113 0.44 0.518c0.063-0.125 0.095-0.264 0.095-0.417h0.33c0 0.28-0.065 0.509-0.196 0.689l0.334 0.396h-0.44l-0.128-0.152c-0.154 0.115-0.348 0.183-0.558 0.183-0.008 0-0.017-0-0.025-0l0.001 0c-0.225 0-0.405-0.060-0.54-0.179-0.124-0.11-0.202-0.27-0.202-0.447 0-0.007 0-0.014 0-0.021l-0 0.001zM12.424 29.587c0.128 0 0.248-0.043 0.359-0.128l-0.497-0.586-0.049 0.035c-0.125 0.095-0.188 0.203-0.188 0.325 0 0.105 0.034 0.191 0.102 0.256 0.066 0.061 0.156 0.099 0.254 0.099 0.006 0 0.013-0 0.019-0l-0.001 0zM12.214 28.121c0 0.088 0.054 0.197 0.161 0.33l0.173-0.118 0.049-0.039c0.059-0.052 0.097-0.128 0.097-0.212 0-0.003-0-0.006-0-0.009v0c0-0.001 0-0.001 0-0.002 0-0.059-0.026-0.112-0.067-0.149l-0-0c-0.042-0.040-0.099-0.064-0.162-0.064-0.003 0-0.006 0-0.009 0h0c-0.003-0-0.006-0-0.010-0-0.066 0-0.126 0.029-0.167 0.075l-0 0c-0.041 0.048-0.066 0.111-0.066 0.179 0 0.003 0 0.007 0 0.010v-0zM16.348 29.118c-0.023 0.243-0.113 0.432-0.269 0.568s-0.364 0.204-0.623 0.204c-0.181 0-0.341-0.043-0.48-0.128-0.139-0.089-0.248-0.214-0.317-0.362l-0.002-0.005c-0.074-0.16-0.117-0.347-0.117-0.544 0-0.003 0-0.005 0-0.008v0-0.212c0-0.214 0.038-0.403 0.114-0.567 0.077-0.164 0.186-0.29 0.326-0.378 0.143-0.089 0.307-0.133 0.494-0.133 0.251 0 0.453 0.068 0.606 0.205s0.243 0.329 0.268 0.578h-0.394c-0.019-0.163-0.067-0.281-0.144-0.353-0.076-0.073-0.188-0.109-0.336-0.109-0.172 0-0.304 0.063-0.397 0.189-0.092 0.125-0.138 0.309-0.141 0.552v0.202c0 0.246 0.044 0.433 0.132 0.563s0.218 0.194 0.387 0.194c0.155 0 0.272-0.035 0.35-0.105s0.128-0.186 0.148-0.348h0.394zM18.518 28.78c0 0.223-0.038 0.419-0.115 0.588-0.077 0.168-0.188 0.297-0.332 0.388-0.143 0.090-0.307 0.134-0.494 0.134-0.184 0-0.349-0.045-0.493-0.134-0.146-0.094-0.261-0.225-0.332-0.38l-0.002-0.006c-0.075-0.163-0.119-0.354-0.119-0.555 0-0.008 0-0.015 0-0.023v0.001-0.128c0-0.222 0.038-0.418 0.117-0.588s0.19-0.3 0.333-0.389c0.144-0.091 0.308-0.136 0.493-0.136s0.35 0.045 0.493 0.134c0.143 0.089 0.255 0.217 0.333 0.384s0.118 0.362 0.118 0.584v0.126zM18.122 28.662c0-0.252-0.048-0.445-0.143-0.58-0.085-0.123-0.225-0.202-0.384-0.202-0.007 0-0.015 0-0.022 0.001l0.001-0c-0.005-0-0.011-0-0.016-0-0.159 0-0.299 0.079-0.384 0.2l-0.001 0.002c-0.096 0.133-0.145 0.323-0.147 0.567v0.131c0 0.25 0.049 0.444 0.146 0.58s0.233 0.205 0.406 0.205c0.175 0 0.31-0.067 0.403-0.2 0.095-0.133 0.142-0.328 0.142-0.584v-0.118z"></path>
</symbol>
<symbol id="icon-linkedin" viewBox="0 0 32 32">
<path fill="currentColor" d="M31.992 32h0.008v-11.738c0-5.741-1.237-10.163-7.947-10.163-3.227 0-5.392 1.77-6.277 3.45h-0.093v-2.914h-6.365v21.363h6.627v-10.578c0-2.786 0.528-5.48 3.978-5.48 3.398 0 3.448 3.179 3.448 5.658v10.402h6.621zM0.528 10.635h6.635v21.365h-6.635v-21.365zM3.843 0c-2.123 0-3.843 1.721-3.843 3.843v0c0 2.12 1.722 3.878 3.843 3.878 2.12 0 3.842-1.757 3.842-3.878s-1.72-3.841-3.841-3.843h-0z"></path>
</symbol>
<symbol id="icon-instagram" viewBox="0 0 32 32">
<path fill="currentColor" d="M31.968 9.408c-0.074-1.701-0.349-2.869-0.744-3.882-0.423-1.111-1.052-2.058-1.847-2.837l-0.001-0.001c-0.78-0.792-1.724-1.419-2.778-1.827l-0.054-0.018c-1.021-0.394-2.182-0.667-3.883-0.742-1.712-0.082-2.256-0.101-6.602-0.101-4.344 0-4.888 0.019-6.595 0.094-1.701 0.074-2.869 0.349-3.88 0.742-1.112 0.424-2.060 1.054-2.839 1.85l-0.001 0.001c-0.791 0.78-1.418 1.724-1.825 2.778l-0.018 0.054c-0.395 1.019-0.669 2.181-0.744 3.882-0.082 1.712-0.101 2.256-0.101 6.602 0 4.344 0.019 4.888 0.094 6.595 0.075 1.701 0.35 2.869 0.744 3.882 0.426 1.11 1.055 2.057 1.849 2.837l0.001 0.001c0.8 0.813 1.77 1.443 2.832 1.843 1.019 0.395 2.182 0.67 3.882 0.744 1.707 0.075 2.251 0.094 6.595 0.094 4.346 0 4.89-0.019 6.595-0.094 1.701-0.074 2.869-0.349 3.882-0.742 2.157-0.85 3.833-2.526 4.664-4.628l0.019-0.055c0.394-1.019 0.669-2.182 0.744-3.882 0.075-1.707 0.093-2.251 0.093-6.595s-0.006-4.888-0.080-6.595zM29.088 22.474c-0.070 1.563-0.333 2.406-0.552 2.97-0.551 1.399-1.638 2.486-3.001 3.024l-0.036 0.013c-0.563 0.219-1.413 0.482-2.97 0.55-1.688 0.075-2.194 0.094-6.464 0.094-4.269 0-4.782-0.019-6.464-0.094-1.563-0.069-2.406-0.331-2.97-0.55-0.721-0.269-1.334-0.676-1.836-1.192l-0.001-0.001c-0.517-0.503-0.924-1.117-1.184-1.803l-0.011-0.034c-0.218-0.563-0.48-1.413-0.549-2.97-0.075-1.688-0.094-2.195-0.094-6.464 0-4.27 0.019-4.784 0.094-6.464 0.069-1.563 0.331-2.406 0.549-2.97 0.269-0.722 0.678-1.337 1.198-1.837l0.002-0.002c0.504-0.517 1.119-0.923 1.806-1.182l0.034-0.011c0.56-0.219 1.411-0.48 2.968-0.55 1.688-0.074 2.194-0.093 6.464-0.093 4.275 0 4.782 0.019 6.464 0.093 1.562 0.069 2.406 0.331 2.97 0.55 0.693 0.256 1.325 0.662 1.837 1.194 0.531 0.52 0.938 1.144 1.195 1.84 0.218 0.56 0.48 1.411 0.549 2.968 0.075 1.688 0.094 2.194 0.094 6.464 0 4.269-0.019 4.768-0.094 6.458z"></path>
<path fill="currentColor" d="M16.059 7.782c-4.539 0.002-8.218 3.682-8.219 8.221v0c0 0 0 0.001 0 0.002 0 4.541 3.681 8.222 8.222 8.222s8.222-3.681 8.222-8.222c0-4.541-3.681-8.222-8.222-8.222-0.001 0-0.001 0-0.002 0h0zM16.059 21.334c-2.945-0-5.332-2.388-5.332-5.333s2.388-5.333 5.333-5.333c0 0 0.001 0 0.001 0h-0c2.946 0 5.334 2.388 5.334 5.334s-2.388 5.334-5.334 5.334v0zM26.525 7.458c0 1.060-0.86 1.92-1.92 1.92s-1.92-0.86-1.92-1.92v0c0-1.060 0.86-1.92 1.92-1.92s1.92 0.86 1.92 1.92v0z"></path>
</symbol>
<symbol id="icon-facebook" viewBox="0 0 32 32">
<path fill="currentColor" d="M21.328 5.312h2.923v-5.088c-1.232-0.143-2.66-0.224-4.108-0.224-0.052 0-0.104 0-0.156 0l0.008-0c-4.213 0-7.099 2.65-7.099 7.52v4.48h-4.646v5.688h4.646v14.312h5.699v-14.31h4.459l0.707-5.688h-5.168v-3.922c0-1.643 0.443-2.768 2.734-2.768z"></path>
</symbol>
<symbol fill="currentColor" id="icon-mail" viewBox="0 0 32 32">
<path fill="currentColor" d="M29 4h-26c-1.654 0-3 1.346-3 3v18c0 1.654 1.346 3 3 3h26c1.654 0 3-1.346 3-3v-18c0-1.654-1.346-3-3-3zM29 6c0.136 0 0.266 0.028 0.384 0.078l-13.384 11.6-13.384-11.6c0.113-0.049 0.245-0.078 0.384-0.078h26zM29 26h-26c-0.552 0-1-0.448-1-1v0-16.81l13.344 11.566c0.175 0.152 0.404 0.245 0.656 0.245s0.481-0.093 0.657-0.246l-0.001 0.001 13.344-11.566v16.81c0 0.552-0.448 1-1 1v0z"></path>
</symbol>
<symbol id="icon-diagram" viewBox="0 0 32 32">
<path fill="#2196f3" style="fill: var(--color3, #2196f3)" d="M14.926 14.965h1.066v4.798h-1.066v-4.798zM19.19 17.097h1.066v2.665h-1.066v-2.665zM10.661 18.696h1.066v1.066h-1.066v-1.066zM7.463 18.163h1.066v1.599h-1.066v-1.599z"></path>
<path fill="#212121" style="fill: var(--color4, #212121)" d="M1.599 28.291h25.586c0 0 0 0 0 0 0.883 0 1.599-0.716 1.599-1.599v0-2.132c0-0.883-0.716-1.599-1.599-1.599v0h-0.533v-13.294l3.028-2.868c0.207 0.104 0.452 0.166 0.711 0.166 0.888 0 1.608-0.72 1.608-1.608s-0.72-1.608-1.608-1.608c-0.888 0-1.608 0.72-1.608 1.608 0 0.247 0.056 0.481 0.155 0.69l-0.004-0.010-2.281 2.162v-1.23c0-0.883-0.716-1.599-1.599-1.599v0h-21.323c-0.883 0-1.599 0.716-1.599 1.599v0 15.992h-0.533c-0.883 0-1.599 0.716-1.599 1.599v0 2.132c0 0.883 0.716 1.599 1.599 1.599v0zM30.384 4.837c0.294 0 0.533 0.239 0.533 0.533s-0.239 0.533-0.533 0.533v0c-0.294 0-0.533-0.239-0.533-0.533s0.239-0.533 0.533-0.533v0zM3.198 6.969c0-0.294 0.239-0.533 0.533-0.533h21.323c0.294 0 0.533 0.239 0.533 0.533v2.239l-1.066 1.013v-2.185c0-0.295-0.239-0.534-0.534-0.534h-19.189c-0.294 0-0.534 0.239-0.534 0.533v13.327c0 0.294 0.239 0.533 0.534 0.533h19.189c0.295 0 0.534-0.239 0.534-0.533v-9.675l1.066-1.010v12.283h-22.389v-15.991zM7.996 13.899c-0.001 0-0.003 0-0.005 0-0.883 0-1.599 0.716-1.599 1.599s0.716 1.599 1.599 1.599c0.432 0 0.824-0.172 1.112-0.45l-0 0 1.853 0.93c0.215 0.107 0.476 0.057 0.636-0.122l3.939-4.432 3.872 2.902c0.208 0.155 0.498 0.139 0.686-0.039l3.365-3.188v8.131h-18.123v-12.261h18.123v2.661l-3.771 3.572-3.904-2.927c-0.088-0.067-0.2-0.107-0.32-0.107-0.158 0-0.3 0.069-0.398 0.178l-0 0.001-3.993 4.493-1.493-0.746c0.011-0.064 0.017-0.128 0.020-0.193 0-0.883-0.716-1.599-1.599-1.599v0zM8.529 15.498c0 0.294-0.239 0.533-0.533 0.533s-0.533-0.239-0.533-0.533v0c0-0.294 0.239-0.533 0.533-0.533s0.533 0.239 0.533 0.533v0zM11.727 24.026h5.33v0.533c0 0.294-0.238 0.533-0.533 0.533h-4.265c-0.294 0-0.533-0.239-0.533-0.533v0-0.533zM1.067 24.56c0-0.294 0.238-0.533 0.533-0.533h9.062v0.533c0 0.883 0.716 1.599 1.599 1.599v0h4.265c0.883 0 1.599-0.716 1.599-1.599v0-0.533h9.062c0.294 0 0.533 0.239 0.533 0.533v2.132c0 0.294-0.239 0.533-0.533 0.533h-25.586c-0 0-0 0-0 0-0.294 0-0.533-0.239-0.533-0.533 0 0 0 0 0 0v0-2.132z"></path>
</symbol>
<symbol id="icon-clock" viewBox="0 0 32 32">
<path fill="#212121" style="fill: var(--color4, #212121)" d="M31.296 15.301c-0.001-8.452-6.855-15.303-15.308-15.301s-15.303 6.855-15.301 15.308c0.002 6.788 4.422 12.543 10.54 14.545l0.108 0.031c0.061 0.019 0.123 0.029 0.187 0.029 0.12 0 0.238-0.032 0.342-0.094 0.135-0.080 0.236-0.207 0.283-0.357l3.865-12.25c1.054-0.004 1.906-0.859 1.906-1.913 0-1.056-0.856-1.913-1.913-1.913-0.303 0-0.59 0.071-0.845 0.196l0.011-0.005-5.106-5.107c-0.114-0.11-0.271-0.179-0.443-0.179-0.352 0-0.638 0.286-0.638 0.638 0 0.172 0.068 0.328 0.179 0.443l-0-0 5.103 5.109c-0.121 0.241-0.191 0.525-0.191 0.825 0 0.602 0.283 1.137 0.724 1.481l0.004 0.003-3.683 11.673c-7.278-2.681-11.004-10.754-8.324-18.032s10.754-11.004 18.032-8.323c7.278 2.681 11.004 10.754 8.323 18.032-1.345 3.581-4.003 6.406-7.374 7.938l-0.088 0.036-0.398-1.874c-0.063-0.291-0.318-0.506-0.624-0.506-0.163 0-0.313 0.061-0.425 0.163l0.001-0.001-3.837 3.426c-0.132 0.117-0.214 0.287-0.214 0.477 0 0.283 0.185 0.524 0.441 0.606l0.005 0.001 4.899 1.563c0.058 0.020 0.126 0.031 0.196 0.031 0.352 0 0.637-0.285 0.637-0.637 0-0.047-0.005-0.093-0.015-0.138l0.001 0.004-0.391-1.839c5.528-2.374 9.329-7.772 9.329-14.057 0-0.011 0-0.023-0-0.034v0.002zM15.992 14.664c0.352 0 0.638 0.286 0.638 0.638s-0.285 0.638-0.638 0.638v0c-0.352 0-0.638-0.286-0.638-0.638s0.286-0.638 0.638-0.638v0zM18.092 29.528l2.184-1.948 0.603 2.84-2.787-0.892z"></path>
<path fill="#2196f3" style="fill: var(--color3, #2196f3)" d="M15.354 3.185v1.275c0 0.352 0.286 0.638 0.638 0.638s0.638-0.285 0.638-0.638v0-1.275c0-0.352-0.285-0.638-0.638-0.638s-0.638 0.285-0.638 0.638v0zM3.876 14.664c-0.352 0-0.638 0.286-0.638 0.638s0.285 0.638 0.638 0.638h1.275c0.352 0 0.638-0.286 0.638-0.638s-0.285-0.638-0.638-0.638h-1.275zM28.108 15.939c0.352 0 0.638-0.286 0.638-0.638s-0.285-0.638-0.638-0.638h-1.275c-0.352 0-0.638 0.286-0.638 0.638s0.285 0.638 0.638 0.638h1.275z"></path>
</symbol>
<symbol id="icon-astronaut" viewBox="0 0 32 32">
<path fill="#2196f3" style="fill: var(--color3, #2196f3)" d="M31.974 4.524c-0.064-0.191-0.227-0.332-0.427-0.362l-0.003-0-1.911-0.278-0.855-1.731c-0.179-0.365-0.777-0.365-0.956 0l-0.855 1.731-1.911 0.278c-0.26 0.039-0.457 0.26-0.457 0.528 0 0.15 0.062 0.285 0.161 0.382l1.383 1.348-0.326 1.903c-0.034 0.2 0.048 0.402 0.212 0.522 0.166 0.12 0.383 0.135 0.562 0.040l1.709-0.899 1.709 0.899c0.072 0.038 0.157 0.061 0.247 0.061 0.295 0 0.534-0.239 0.534-0.534 0-0.031-0.003-0.062-0.008-0.092l0 0.003-0.326-1.903 1.383-1.348c0.099-0.097 0.161-0.233 0.161-0.382 0-0.059-0.009-0.115-0.027-0.168l0.001 0.004zM29.511 5.851c-0.126 0.122-0.183 0.299-0.153 0.472l0.191 1.114-1-0.526c-0.072-0.039-0.158-0.062-0.249-0.062s-0.177 0.023-0.252 0.063l0.003-0.001-1 0.526 0.191-1.114c0.005-0.027 0.008-0.059 0.008-0.091 0-0.149-0.061-0.285-0.16-0.381l-0-0-0.811-0.789 1.119-0.163c0.174-0.025 0.324-0.134 0.402-0.292l0.5-1.013 0.5 1.013c0.078 0.158 0.228 0.267 0.402 0.292l1.119 0.162-0.809 0.79zM26.134 20.522h-1.067v1.067h1.067v-1.067zM26.134 22.656h-1.067v1.066h1.067v-1.066zM27.2 21.589h-1.067v1.067h1.067v-1.067zM25.067 21.589h-1.067v1.067h1.067v-1.067zM22.4 26.389h-1.067v1.067h1.067v-1.067zM22.4 28.523h-1.067v1.067h1.067v-1.067zM23.467 27.456h-1.067v1.067h1.067v-1.067zM21.334 27.456h-1.067v1.067h1.067v-1.067zM16 24.256h-1.066v1.067h1.066v-1.067zM16 26.389h-1.066v1.067h1.066v-1.067zM17.067 25.322h-1.067v1.067h1.067v-1.067zM14.934 25.322h-1.067v1.067h1.067v-1.067zM5.867 6.122h-1.066v1.066h1.066v-1.066zM5.867 8.256h-1.066v1.066h1.066v-1.066zM6.933 7.189h-1.067v1.067h1.066v-1.067zM4.8 7.189h-1.067v1.067h1.067v-1.067z"></path>
<path fill="#212121" style="fill: var(--color4, #212121)" d="M24.715 14.16c-0.28-0.376-0.698-0.636-1.179-0.703l-0.009-0.001c-0.076-0.012-0.164-0.018-0.254-0.018-0.411 0-0.789 0.139-1.090 0.373l0.004-0.003-1.253 0.96-1.898 1.417-1.358-0.541c2.421-1.086 4.113-3.508 4.113-6.32 0-3.823-3.122-6.934-6.961-6.934s-6.961 3.11-6.961 6.934c0 1.386 0.415 2.674 1.12 3.759l-2.768-0.024c-0.009 0-0.016 0.005-0.023 0.005-0.057 0.003-0.11 0.014-0.159 0.033l0.004-0.001c-0.013 0.005-0.026 0.007-0.038 0.013-0.006 0.003-0.013 0.003-0.019 0.006l-3.233 1.596c-0 0-0.001 0-0.001 0.001l-1.893 0.91c-0.024 0.011-0.045 0.023-0.064 0.036l0.001-0.001c-0.482 0.324-0.795 0.867-0.795 1.483 0 0.297 0.073 0.577 0.201 0.823l-0.005-0.010c0.22 0.424 0.592 0.742 1.043 0.885l0.013 0.003c0.161 0.053 0.345 0.083 0.537 0.083 0.308 0 0.598-0.078 0.851-0.216l-0.009 0.005 1.388-0.738 2.264-1.169 1.357-0.008-5.442 5.415c0 0.001-0.001 0.001-0.001 0.001l-1.339 1.333c-0.303 0.299-0.491 0.714-0.491 1.173 0 0.002 0 0.003 0 0.005v-0c0.002 0.919 0.748 1.664 1.667 1.664 0.001 0 0.002 0 0.002 0h-0c0.428 0 0.854-0.162 1.18-0.485l1.314-1.309 1.741-1.3 0.901 0.897-3.102 3.088c-0.303 0.299-0.491 0.715-0.491 1.174 0 0.001 0 0.003 0 0.004v-0c0 0.445 0.174 0.864 0.49 1.179 0.302 0.3 0.717 0.485 1.176 0.485 0.001 0 0.002 0 0.003 0h-0c0.427 0 0.855-0.162 1.18-0.485l4.488-4.472c0.007-0.006 0.016-0.009 0.022-0.016l5.166-5.658 3.471 0.494c0.025 0.004 0.050 0.006 0.075 0.006 0.064 0 0.127-0.016 0.187-0.038 0.017-0.006 0.032-0.015 0.049-0.023 0.019-0.010 0.039-0.015 0.058-0.027l3.213-2.133c0.012-0.008 0.018-0.021 0.029-0.030 0.013-0.010 0.029-0.014 0.041-0.026l1.271-1.191c0.348-0.326 0.564-0.787 0.564-1.3 0-0.4-0.132-0.769-0.355-1.066l0.003 0.005zM2.13 17.77c-0.098 0.054-0.215 0.086-0.34 0.086-0.078 0-0.153-0.013-0.224-0.036l0.005 0.001c-0.294-0.093-0.504-0.364-0.504-0.683 0-0.236 0.114-0.445 0.29-0.575l0.002-0.001 1.314-0.632 0.316 0.924 0.133 0.389-0.992 0.527zM5.627 15.942l-1.548 0.8-0.255-0.746-0.184-0.537 2.027-1.001-0.040 1.484zM20.727 9.322c0 0.918-0.219 1.785-0.599 2.56l-4.181-1.899c-0.044-0.575-0.342-1.072-0.782-1.384l-0.006-0.004 1.464-4.86c2.377 0.756 4.104 2.974 4.104 5.588zM8.938 9.322c0-3.235 2.644-5.867 5.894-5.867 0.253 0 0.5 0.022 0.745 0.053l-1.432 4.753c-0.019 0-0.037-0.006-0.057-0.006-0 0-0.001 0-0.001 0-1.032 0-1.869 0.835-1.872 1.867v0c0.003 1.031 0.84 1.867 1.872 1.867 0 0 0 0 0.001 0h-0c0.695 0 1.295-0.383 1.618-0.944l3.863 1.755c-1.075 1.446-2.795 2.389-4.737 2.389-3.25 0-5.894-2.632-5.894-5.867zM14.895 10.122c0 0.441-0.362 0.8-0.806 0.8-0 0-0.001 0-0.001 0-0.443 0-0.802-0.358-0.804-0.8v-0c0-0.441 0.361-0.8 0.806-0.8s0.806 0.359 0.806 0.8zM2.464 25.146c-0.11 0.109-0.261 0.176-0.428 0.176s-0.317-0.067-0.427-0.175l0 0c-0.109-0.108-0.176-0.257-0.176-0.422s0.067-0.314 0.176-0.422l0-0 0.962-0.959 0.852 0.848-0.959 0.955zM5.678 28.88c-0.11 0.109-0.261 0.176-0.428 0.176s-0.317-0.067-0.427-0.175l0 0c-0.109-0.108-0.176-0.257-0.176-0.422s0.067-0.314 0.176-0.422l0-0 0.963-0.959 0.852 0.848-0.96 0.955zM9.16 25.411l-0.001 0.001-1.765 1.76-0.852-0.848 1.765-1.757c0.040-0.040 0.065-0.088 0.090-0.136 0.007-0.014 0.020-0.026 0.026-0.040 0.016-0.041 0.019-0.085 0.026-0.128 0.003-0.025 0.014-0.048 0.014-0.073 0-0.035-0.013-0.070-0.020-0.105-0.006-0.032-0.006-0.064-0.019-0.096-0.025-0.053-0.055-0.098-0.092-0.138l0 0c-0.010-0.012-0.014-0.027-0.025-0.038h-0.001s0-0.001-0.001-0.002l-1.607-1.6c-0.017-0.017-0.039-0.024-0.058-0.038-0.025-0.021-0.054-0.040-0.084-0.057l-0.003-0.001c-0.026-0.013-0.058-0.023-0.090-0.031l-0.003-0.001c-0.030-0.009-0.065-0.017-0.101-0.020l-0.002-0c-0.007-0-0.015-0.001-0.023-0.001-0.026 0-0.051 0.002-0.075 0.005l0.003-0c-0.036 0.005-0.069 0.009-0.104 0.021-0.036 0.013-0.067 0.028-0.096 0.046l0.002-0.001c-0.020 0.011-0.043 0.015-0.061 0.029l-1.774 1.324-0.901-0.897 2.399-2.386 4.36 4.289-0.928 0.919zM15.979 18.394c-0.016-0.002-0.030 0.004-0.046 0.003-0.008-0-0.017-0.001-0.027-0.001-0.031 0-0.062 0.003-0.092 0.008l0.003-0c-0.070 0.011-0.132 0.035-0.187 0.070l0.002-0.001c-0.031 0.019-0.058 0.039-0.083 0.062l0-0c-0.013 0.011-0.028 0.016-0.040 0.029l-4.698 5.146-4.328-4.256 2.833-2.818c0.096-0.097 0.156-0.23 0.156-0.377 0-0.295-0.239-0.534-0.534-0.534-0.001 0-0.001 0-0.002 0h0l-2.219 0.013 0.028-1.607 3.104 0.027c1.264 1.297 3.027 2.101 4.978 2.101 0.001 0 0.002 0 0.003 0h-0c0.438 0 0.864-0.046 1.28-0.122 0.040 0.032 0.080 0.064 0.129 0.085l2.41 0.96 0.152 0.759 0.178 0.885-3.003-0.427zM20.020 18.572l-0.313-1.558 1.446-1.080 0.946 1.257-2.080 1.381zM23.773 15.741l-0.837 0.785-0.931-1.237 0.831-0.637c0.155-0.119 0.351-0.168 0.543-0.143 0.193 0.027 0.364 0.128 0.48 0.284 0.088 0.117 0.141 0.265 0.141 0.426 0 0.206-0.087 0.391-0.226 0.521l-0 0z"></path>
<path fill="#212121" style="fill: var(--color4, #212121)" d="M13.602 18.544l-2.143-2.134c-0.096-0.096-0.229-0.155-0.376-0.155s-0.28 0.059-0.376 0.155l-2.143 2.133c-0.097 0.097-0.156 0.23-0.156 0.378s0.060 0.281 0.156 0.378l-0-0 2.142 2.134c0.096 0.096 0.229 0.156 0.376 0.156s0.28-0.059 0.376-0.156v0l2.143-2.134c0.097-0.097 0.157-0.23 0.157-0.378s-0.060-0.281-0.157-0.378l-0-0zM11.083 20.303l-1.387-1.381 1.386-1.381 1.387 1.381-1.387 1.381zM17.164 5.071l-0.258 1.036c0.071 0.018 1.738 0.452 1.738 2.149h1.067c0-2.017-1.666-2.965-2.547-3.184zM19.711 9.322h-1.067v1.066h1.067v-1.066z"></path>
</symbol>
<symbol id="icon-antenna" viewBox="0 0 32 32">
<path fill="#212121" style="fill: var(--color4, #212121)" d="M30.773 22.098l-8.443-8.505 0.937-4.616c0.225 0.090 0.485 0.144 0.758 0.146h0.007c0.008 0 0.017 0 0.026 0 1.192 0 2.159-0.967 2.159-2.159s-0.967-2.159-2.159-2.159c-1.192 0-2.159 0.967-2.159 2.159 0 0.259 0.046 0.508 0.13 0.739l-0.005-0.015-4.96 0.606-8.091-8.133c-0.096-0.098-0.229-0.159-0.376-0.16h-0c-0.14 0.001-0.274 0.057-0.373 0.155l-1.512 1.504c-0.096 0.097-0.156 0.23-0.156 0.377s0.060 0.281 0.156 0.377v0l0.814 0.825c-1.143 2.062-1.816 4.522-1.816 7.139 0 4.106 1.656 7.824 4.336 10.525l-0.001-0.001c0.043 0.041 0.092 0.074 0.146 0.097-0.032 0.164-0.051 0.353-0.052 0.546v6.188h-6.4c-1.472 0.001-2.666 1.194-2.667 2.666v1.067c0 0.295 0.239 0.534 0.534 0.534h24.534c0.294 0 0.533-0.239 0.533-0.534v-1.067c-0.002-1.472-1.195-2.665-2.666-2.666h-6.4v-2.742c0.915 0.201 1.968 0.317 3.047 0.32h0.002c2.58-0.003 5.005-0.663 7.117-1.822l-0.077 0.039 0.818 0.823c0.099 0.101 0.235 0.159 0.376 0.16 0.14-0.001 0.274-0.057 0.373-0.155l1.512-1.504c0.096-0.097 0.156-0.23 0.156-0.377s-0.060-0.281-0.156-0.377v0zM23.28 6.233c0.193-0.192 0.459-0.31 0.752-0.31 0.589 0 1.067 0.478 1.067 1.066s-0.477 1.066-1.067 1.066c-0 0-0 0-0.001 0h-0.003c-0.587-0.003-1.061-0.479-1.061-1.066 0-0.295 0.12-0.563 0.314-0.756l0-0h-0.002zM22.024 9.737l-0.598 2.946-1.175-1.183 1.774-1.763zM21.419 8.835l-1.92 1.909-1.486-1.493 3.406-0.416zM24.004 28.8c0.884 0 1.6 0.716 1.6 1.6v0 0.534h-23.466v-0.534c0-0.884 0.716-1.6 1.6-1.6v0h20.267zM16.538 26.666v1.067h-5.334v-1.067h5.334zM11.204 25.6v-4.053c0-1.294 1.196-2.346 2.667-2.346s2.667 1.053 2.667 2.346v4.053h-5.334zM17.604 23.904v-2.357c0-1.882-1.675-3.413-3.733-3.413-0.017-0-0.038-0-0.058-0-1.353 0-2.54 0.707-3.213 1.771l-0.009 0.016c-2.36-2.482-3.812-5.846-3.812-9.55 0-2.314 0.567-4.496 1.569-6.414l-0.036 0.077 18.602 18.709c-1.823 0.947-3.979 1.502-6.266 1.502-1.079 0-2.128-0.124-3.136-0.357l0.093 0.018zM28.893 23.22l-21.057-21.181 0.754-0.752 7.935 7.98c0.004 0 0.006 0.007 0.009 0.010l13.115 13.191-0.757 0.752z"></path>
<path fill="#2196f3" style="fill: var(--color3, #2196f3)" d="M13.876 20.267h-0.005c-0.001 0-0.002 0-0.002 0-0.884 0-1.6 0.716-1.6 1.6s0.715 1.599 1.597 1.6h0.005c0.001 0 0.001 0 0.002 0 0.884 0 1.6-0.716 1.6-1.6s-0.715-1.599-1.598-1.6h-0zM14.249 22.245c-0.096 0.096-0.229 0.155-0.376 0.155-0.295 0-0.534-0.239-0.534-0.534s0.238-0.533 0.532-0.533h0c0.293 0.002 0.53 0.24 0.53 0.533 0 0.148-0.060 0.281-0.157 0.378v0h0.005z"></path>
</symbol>
<symbol id="person" viewBox="0 0 18 18">
<path fill="currentColor" d="M9 9C10.6575 9 12 7.6575 12 6C12 4.3425 10.6575 3 9 3C7.3425 3 6 4.3425 6 6C6 7.6575 7.3425 9 9 9ZM9 10.5C6.9975 10.5 3 11.505 3 13.5V14.25C3 14.6625 3.3375 15 3.75 15H14.25C14.6625 15 15 14.6625 15 14.25V13.5C15 11.505 11.0025 10.5 9 10.5Z"/>
</symbol>
<symbol id="phone" viewBox="0 0 18 18">
<path fill="currentColor" d="M13.996 11.1226L12.1579 10.9127C11.7164 10.862 11.2822 11.014 10.971 11.3252L9.63945 12.6568C7.59144 11.6147 5.91251 9.94296 4.87041 7.8877L6.20922 6.54888C6.5204 6.2377 6.67237 5.80349 6.62171 5.36205L6.41185 3.53836C6.325 2.80745 5.70988 2.25745 4.97173 2.25745H3.71976C2.902 2.25745 2.22175 2.93771 2.2724 3.75547C2.65595 9.93572 7.59868 14.8712 13.7717 15.2548C14.5894 15.3054 15.2697 14.6252 15.2697 13.8074V12.5555C15.2769 11.8245 14.7269 11.2094 13.996 11.1226Z"/>
</symbol>
<symbol id="email" viewBox="0 0 18 18">
<path fill="currentColor" d="M15 3H3C2.175 3 1.5075 3.675 1.5075 4.5L1.5 13.5C1.5 14.325 2.175 15 3 15H15C15.825 15 16.5 14.325 16.5 13.5V4.5C16.5 3.675 15.825 3 15 3ZM14.7 6.1875L9.3975 9.5025C9.1575 9.6525 8.8425 9.6525 8.6025 9.5025L3.3 6.1875C3.1125 6.0675 3 5.865 3 5.6475C3 5.145 3.5475 4.845 3.975 5.1075L9 8.25L14.025 5.1075C14.4525 4.845 15 5.145 15 5.6475C15 5.865 14.8875 6.0675 14.7 6.1875Z"/>
</symbol>
<symbol id="send" viewBox="0 0 24 24">
<path d="M24 0L0 13.5L7.66994 16.3407L19.5 5.25002L10.5017 17.3896L10.509 17.3923L10.5 17.3896V24.0001L14.8013 18.982L20.2501 21.0001L24 0Z" fill="white"/>
</symbol>
<symbol id="close" viewBox="0 0 30 30">
<circle cx="15" cy="15" r="15" fill="white"/>
<circle cx="15" cy="15" r="14.5" fill="white" stroke="rgba(0, 0, 0, 0.1)"/>
<path fill="currentColor" d="M21 10.1079L19.8921 9L15.5 13.3921L11.1079 9L10 10.1079L14.3921 14.5L10 18.8921L11.1079 20L15.5 15.6079L19.8921 20L21 18.8921L16.6079 14.5L21 10.1079Z"/>
</symbol>
</defs>
</svg>
